<svg width="41" height="40" viewBox="0 0 41 40" fill="none" xmlns="http://www.w3.org/2000/svg">
<path d="M10.5003 33.3327C9.58366 33.3327 8.79894 33.0063 8.14616 32.3535C7.49338 31.7007 7.16699 30.916 7.16699 29.9993C7.16699 29.0827 7.49338 28.298 8.14616 27.6452C8.79894 26.9924 9.58366 26.666 10.5003 26.666C11.417 26.666 12.2017 26.9924 12.8545 27.6452C13.5073 28.298 13.8337 29.0827 13.8337 29.9993C13.8337 30.916 13.5073 31.7007 12.8545 32.3535C12.2017 33.0063 11.417 33.3327 10.5003 33.3327ZM20.5003 33.3327C19.5837 33.3327 18.7989 33.0063 18.1462 32.3535C17.4934 31.7007 17.167 30.916 17.167 29.9993C17.167 29.0827 17.4934 28.298 18.1462 27.6452C18.7989 26.9924 19.5837 26.666 20.5003 26.666C21.417 26.666 22.2017 26.9924 22.8545 27.6452C23.5073 28.298 23.8337 29.0827 23.8337 29.9993C23.8337 30.916 23.5073 31.7007 22.8545 32.3535C22.2017 33.0063 21.417 33.3327 20.5003 33.3327ZM30.5003 33.3327C29.5837 33.3327 28.7989 33.0063 28.1462 32.3535C27.4934 31.7007 27.167 30.916 27.167 29.9993C27.167 29.0827 27.4934 28.298 28.1462 27.6452C28.7989 26.9924 29.5837 26.666 30.5003 26.666C31.417 26.666 32.2017 26.9924 32.8545 27.6452C33.5073 28.298 33.8337 29.0827 33.8337 29.9993C33.8337 30.916 33.5073 31.7007 32.8545 32.3535C32.2017 33.0063 31.417 33.3327 30.5003 33.3327ZM10.5003 23.3327C9.58366 23.3327 8.79894 23.0063 8.14616 22.3535C7.49338 21.7007 7.16699 20.916 7.16699 19.9993C7.16699 19.0827 7.49338 18.298 8.14616 17.6452C8.79894 16.9924 9.58366 16.666 10.5003 16.666C11.417 16.666 12.2017 16.9924 12.8545 17.6452C13.5073 18.298 13.8337 19.0827 13.8337 19.9993C13.8337 20.916 13.5073 21.7007 12.8545 22.3535C12.2017 23.0063 11.417 23.3327 10.5003 23.3327ZM20.5003 23.3327C19.5837 23.3327 18.7989 23.0063 18.1462 22.3535C17.4934 21.7007 17.167 20.916 17.167 19.9993C17.167 19.0827 17.4934 18.298 18.1462 17.6452C18.7989 16.9924 19.5837 16.666 20.5003 16.666C21.417 16.666 22.2017 16.9924 22.8545 17.6452C23.5073 18.298 23.8337 19.0827 23.8337 19.9993C23.8337 20.916 23.5073 21.7007 22.8545 22.3535C22.2017 23.0063 21.417 23.3327 20.5003 23.3327ZM30.5003 23.3327C29.5837 23.3327 28.7989 23.0063 28.1462 22.3535C27.4934 21.7007 27.167 20.916 27.167 19.9993C27.167 19.0827 27.4934 18.298 28.1462 17.6452C28.7989 16.9924 29.5837 16.666 30.5003 16.666C31.417 16.666 32.2017 16.9924 32.8545 17.6452C33.5073 18.298 33.8337 19.0827 33.8337 19.9993C33.8337 20.916 33.5073 21.7007 32.8545 22.3535C32.2017 23.0063 31.417 23.3327 30.5003 23.3327ZM10.5003 13.3327C9.58366 13.3327 8.79894 13.0063 8.14616 12.3535C7.49338 11.7007 7.16699 10.916 7.16699 9.99935C7.16699 9.08268 7.49338 8.29796 8.14616 7.64518C8.79894 6.9924 9.58366 6.66602 10.5003 6.66602C11.417 6.66602 12.2017 6.9924 12.8545 7.64518C13.5073 8.29796 13.8337 9.08268 13.8337 9.99935C13.8337 10.916 13.5073 11.7007 12.8545 12.3535C12.2017 13.0063 11.417 13.3327 10.5003 13.3327ZM20.5003 13.3327C19.5837 13.3327 18.7989 13.0063 18.1462 12.3535C17.4934 11.7007 17.167 10.916 17.167 9.99935C17.167 9.08268 17.4934 8.29796 18.1462 7.64518C18.7989 6.9924 19.5837 6.66602 20.5003 6.66602C21.417 6.66602 22.2017 6.9924 22.8545 7.64518C23.5073 8.29796 23.8337 9.08268 23.8337 9.99935C23.8337 10.916 23.5073 11.7007 22.8545 12.3535C22.2017 13.0063 21.417 13.3327 20.5003 13.3327ZM30.5003 13.3327C29.5837 13.3327 28.7989 13.0063 28.1462 12.3535C27.4934 11.7007 27.167 10.916 27.167 9.99935C27.167 9.08268 27.4934 8.29796 28.1462 7.64518C28.7989 6.9924 29.5837 6.66602 30.5003 6.66602C31.417 6.66602 32.2017 6.9924 32.8545 7.64518C33.5073 8.29796 33.8337 9.08268 33.8337 9.99935C33.8337 10.916 33.5073 11.7007 32.8545 12.3535C32.2017 13.0063 31.417 13.3327 30.5003 13.3327Z" fill="#1D1F22"/>
</svg>
