<svg width="34" height="34" viewBox="0 0 34 34" fill="none" xmlns="http://www.w3.org/2000/svg">
<circle cx="17" cy="17" r="17" fill="black"/>
<rect x="6" y="9" width="22.5" height="15.75" rx="4" fill="white"/>
<path d="M19.5 16.9883L15.5625 19.2383V14.7383L19.5 16.9883Z" fill="black" stroke="black" stroke-width="1.5" stroke-linecap="round" stroke-linejoin="round"/>
<path d="M6 17.784V16.191C6 12.9341 6 11.3051 7.01812 10.2578C8.03737 9.20925 9.64163 9.16425 12.849 9.07313C14.3678 9.03038 15.9202 9 17.25 9C18.5798 9 20.1311 9.03038 21.651 9.07313C24.8584 9.16425 26.4626 9.20925 27.4807 10.2578C28.4989 11.3063 28.5 12.9352 28.5 16.191V17.7829C28.5 21.0409 28.5 22.6688 27.4819 23.7173C26.4626 24.7646 24.8595 24.8108 21.651 24.9008C20.1322 24.9446 18.5798 24.975 17.25 24.975C15.9202 24.975 14.3689 24.9446 12.849 24.9008C9.64163 24.8108 8.03737 24.7658 7.01812 23.7173C5.99887 22.6688 6 21.0398 6 17.784Z" stroke="black" stroke-width="1.5"/>
</svg>
