<svg width="34" height="34" viewBox="0 0 34 34" fill="none" xmlns="http://www.w3.org/2000/svg">
<circle cx="17" cy="17" r="17" fill="black"/>
<path d="M13.22 8H20.78C23.66 8 26 10.34 26 13.22V20.78C26 22.1644 25.45 23.4922 24.4711 24.4711C23.4922 25.45 22.1644 26 20.78 26H13.22C10.34 26 8 23.66 8 20.78V13.22C8 11.8356 8.54996 10.5078 9.5289 9.5289C10.5078 8.54996 11.8356 8 13.22 8ZM13.04 9.8C12.1807 9.8 11.3566 10.1414 10.749 10.749C10.1414 11.3566 9.8 12.1807 9.8 13.04V20.96C9.8 22.751 11.249 24.2 13.04 24.2H20.96C21.8193 24.2 22.6434 23.8586 23.251 23.251C23.8586 22.6434 24.2 21.8193 24.2 20.96V13.04C24.2 11.249 22.751 9.8 20.96 9.8H13.04ZM21.725 11.15C22.0234 11.15 22.3095 11.2685 22.5205 11.4795C22.7315 11.6905 22.85 11.9766 22.85 12.275C22.85 12.5734 22.7315 12.8595 22.5205 13.0705C22.3095 13.2815 22.0234 13.4 21.725 13.4C21.4266 13.4 21.1405 13.2815 20.9295 13.0705C20.7185 12.8595 20.6 12.5734 20.6 12.275C20.6 11.9766 20.7185 11.6905 20.9295 11.4795C21.1405 11.2685 21.4266 11.15 21.725 11.15ZM17 12.5C18.1935 12.5 19.3381 12.9741 20.182 13.818C21.0259 14.6619 21.5 15.8065 21.5 17C21.5 18.1935 21.0259 19.3381 20.182 20.182C19.3381 21.0259 18.1935 21.5 17 21.5C15.8065 21.5 14.6619 21.0259 13.818 20.182C12.9741 19.3381 12.5 18.1935 12.5 17C12.5 15.8065 12.9741 14.6619 13.818 13.818C14.6619 12.9741 15.8065 12.5 17 12.5ZM17 14.3C16.2839 14.3 15.5972 14.5845 15.0908 15.0908C14.5845 15.5972 14.3 16.2839 14.3 17C14.3 17.7161 14.5845 18.4028 15.0908 18.9092C15.5972 19.4155 16.2839 19.7 17 19.7C17.7161 19.7 18.4028 19.4155 18.9092 18.9092C19.4155 18.4028 19.7 17.7161 19.7 17C19.7 16.2839 19.4155 15.5972 18.9092 15.0908C18.4028 14.5845 17.7161 14.3 17 14.3Z" fill="white"/>
</svg>
